<svg xmlns:dc="http://purl.org/dc/elements/1.1/" xmlns:cc="http://creativecommons.org/ns#" xmlns:rdf="http://www.w3.org/1999/02/22-rdf-syntax-ns#" xmlns:svg="http://www.w3.org/2000/svg" xmlns="http://www.w3.org/2000/svg" xmlns:sodipodi="http://sodipodi.sourceforge.net/DTD/sodipodi-0.dtd" xmlns:inkscape="http://www.inkscape.org/namespaces/inkscape" version="1.1" x="0px" y="0px" viewBox="0 0 100 125"><g transform="translate(0,-952.36218)"><path d="m 79.000002,965.39347 c 3.86071,0 7,3.13929 7,7 l 0,39.99993 c 0,3.8608 -3.13929,7.0001 -7,7.0001 l -11.92279,0 1.9375,18.875 c 0.10473,0.83 -1.14384,1.4202 -1.71875,0.8125 l -19.75,-19.6875 -26.545964,0 c -3.86071,0 -7,-3.1393 -7,-7.0001 l 0,-39.99993 c 0,-3.86071 3.13929,-7 7,-7 z m 0,2 -58.000004,0 c -2.78731,0 -5,2.21269 -5,5 l 0,39.99993 c 0,2.7874 2.21269,5.0001 5,5.0001 l 26.952214,0 c 0.26406,-0.01 0.52897,0.098 0.71875,0.2812 l 18.0625,18.0313 -1.78125,-17.2188 c -0.0521,-0.5539 0.44366,-1.0961 1,-1.0937 l 13.04779,0 c 2.78731,0 5,-2.2127 5,-5.0001 l 0,-39.99993 c 0,-2.78731 -2.21269,-5 -5,-5 z" style="text-indent:0;text-transform:none;direction:ltr;block-progression:tb;baseline-shift:baseline;color:#000000;enable-background:accumulate;" fill="#000000" fill-opacity="1" stroke="none" marker="none" visibility="visible" display="inline" overflow="visible"/></g></svg>
