<svg xmlns:dc="http://purl.org/dc/elements/1.1/" xmlns:cc="http://creativecommons.org/ns#" xmlns:rdf="http://www.w3.org/1999/02/22-rdf-syntax-ns#" xmlns:svg="http://www.w3.org/2000/svg" xmlns="http://www.w3.org/2000/svg" xmlns:sodipodi="http://sodipodi.sourceforge.net/DTD/sodipodi-0.dtd" xmlns:inkscape="http://www.inkscape.org/namespaces/inkscape" version="1.1" x="0px" y="0px" viewBox="0 0 100 125"><g transform="translate(0,-952.36218)"><path d="m 37,965.36218 c -7.71906,0 -14,6.28097 -14,14 0,7.71899 6.28094,13.99999 14,13.99999 7.71906,0 14,-6.28099 14,-13.99999 0,-7.71903 -6.28094,-14 -14,-14 z m 0,2 c 6.63831,0 12,5.3617 12,12 0,6.63829 -5.36169,11.99999 -12,11.99999 -6.6383,0 -12,-5.3617 -12,-11.99999 0,-6.6383 5.3617,-12 12,-12 z m 34,0 c -6.06326,0 -11,4.93671 -11,11 0,6.06329 4.93674,10.99999 11,10.99999 6.06327,0 11,-4.9367 11,-10.99999 0,-6.06329 -4.93673,-11 -11,-11 z m 0,2 c 4.9824,0 9,4.01759 9,9 0,4.98239 -4.0176,8.99999 -9,8.99999 -4.9824,0 -9,-4.0176 -9,-8.99999 0,-4.98241 4.0176,-9 9,-9 z m 0,25.99999 c -8.62541,0 -16.09626,2.65471 -19.75,7.12503 -4.23926,-1.3649 -9.09119,-2.125 -14.25,-2.125 -8.19159,0 -15.59799,1.932 -21.03125,5.125 C 10.53549,1008.6802 7,1013.2232 7,1018.3622 l 0,20 c 4.99e-5,0.5236 0.4764199,0.9999 1,1 l 58,0 c 0.52358,-10e-5 0.99995,-0.4764 1,-1 l 0,-14 c 8.4433,0 14.42304,0 25,0 0.52358,-10e-5 0.99995,-0.4764 1,-1 l 0,-15 c 0,-3.8999 -2.66523,-7.2205 -6.65625,-9.46873 -3.99102,-2.2483 -9.38046,-3.5313 -15.34375,-3.5313 z m 0,2 c 5.67071,0 10.77452,1.25301 14.375,3.28133 3.60048,2.0282 5.625,4.7245 5.625,7.7187 l 0,14 c -9.80977,0 -15.87619,0 -24,0 l 0,-4 c 0,-5.139 -3.53549,-9.682 -8.96875,-12.875 -1.44652,-0.8501 -3.04618,-1.6226 -4.75,-2.2812 3.26457,-3.41883 9.91978,-5.84383 17.71875,-5.84383 z m -34,5.00003 c 7.87441,0 14.98101,1.8759 20.03125,4.8438 5.05024,2.9679 7.96875,6.9388 7.96875,11.1562 l 0,19 -56,0 0,-19 c 0,-4.2174 2.91851,-8.1883 7.96875,-11.1562 5.05024,-2.9679 12.15684,-4.8438 20.03125,-4.8438 z" style="text-indent:0;text-transform:none;direction:ltr;block-progression:tb;baseline-shift:baseline;color:#000000;enable-background:accumulate;" fill="#000000" fill-opacity="1" stroke="none" marker="none" visibility="visible" display="inline" overflow="visible"/></g></svg>
