<svg xmlns="http://www.w3.org/2000/svg" xmlns:xlink="http://www.w3.org/1999/xlink" version="1.1" x="0px" y="0px" viewBox="0 0 100 125" enable-background="new 0 0 100 100" xml:space="preserve"><g><path d="M50,5C25.147,5.001,5.001,25.147,5,50c0.001,24.853,20.147,44.999,45,45c24.853-0.001,44.999-20.146,45-45   C94.999,25.147,74.853,5.001,50,5z M79.767,79.767C72.144,87.387,61.629,92.096,50,92.097c-11.629-0.001-22.144-4.71-29.767-12.33   C12.613,72.144,7.904,61.629,7.903,50c0.001-11.629,4.71-22.144,12.33-29.767C27.856,12.613,38.371,7.904,50,7.903   c11.629,0.001,22.144,4.71,29.767,12.33c7.62,7.623,12.329,18.138,12.33,29.767C92.096,61.629,87.387,72.144,79.767,79.767z"/><path d="M59.278,31.254c-3.55,0-6.819,1.341-9.267,3.555c-2.468-2.212-5.737-3.555-9.29-3.555   c-7.68,0.002-13.945,6.23-13.947,13.948c-0.002,3.382,1.222,6.475,3.228,8.893l0.033,0.038c0.266,0.299,0.575,0.642,0.904,0.973   l0.005,0.009l17.952,19.156l0.038,0.027l0.026,0.037l0.206,0.128c0.082,0.054,0.157,0.117,0.246,0.153   c0.088,0.036,0.178,0.044,0.27,0.062c0.091,0.018,0.179,0.044,0.272,0.044c0.093,0,0.181-0.026,0.273-0.044   c0.091-0.017,0.182-0.026,0.27-0.061c0.089-0.036,0.164-0.098,0.245-0.152l0.206-0.128l0.027-0.038l0.038-0.027l17.977-19.093   c0.333-0.334,0.674-0.673,1.009-1.087l0.001,0.001l0.009-0.012l0.006-0.007l0,0c1.996-2.415,3.214-5.501,3.212-8.873   C73.223,37.484,66.958,31.255,59.278,31.254z M29.677,45.201c0.001-3.059,1.239-5.81,3.243-7.813c2.006-2,4.76-3.231,7.802-3.232   c3.252,0,6.197,1.414,8.213,3.67l0.031,0.023l0.093,0.1c0.097,0.085,0.203,0.15,0.314,0.204l0.062,0.028   c0.152,0.067,0.312,0.108,0.474,0.12l0.064,0.002c0.164,0.005,0.328-0.016,0.485-0.066l0.061-0.023   c0.158-0.058,0.306-0.143,0.439-0.257l0.028-0.016l0.023-0.031l0.099-0.092l0,0c1.977-2.246,4.919-3.662,8.172-3.662   c3.042,0.001,5.795,1.232,7.801,3.232c2.004,2.003,3.242,4.754,3.243,7.813c-0.002,2.679-0.957,5.101-2.561,7.042l-0.016,0.019   c-0.204,0.256-0.47,0.526-0.812,0.867l-0.012,0.018l-0.02,0.014L49.957,71.159L33.063,53.13l-0.015-0.011l-0.016-0.024l0,0   c-0.261-0.261-0.541-0.571-0.802-0.863C30.631,50.293,29.679,47.875,29.677,45.201z"/></g></svg>
