<svg xmlns="http://www.w3.org/2000/svg" xmlns:xlink="http://www.w3.org/1999/xlink" version="1.1" x="0px" y="0px" viewBox="0 0 100 125" enable-background="new 0 0 100 100" xml:space="preserve"><g><path fill="none" d="M68.03,44.372c-1.423-1.851-2.939-3.705-4.405-5.496C56.252,29.86,48.636,20.549,48.773,6.908   c-6.183,7.627-8.311,15.276-6.693,23.967l0.177,0.941c0.89,4.722,1.81,9.603,0.407,14.54l-0.143,0.525   c-0.411,1.548-0.923,3.474-3.259,3.474c-0.006,0-0.011,0-0.017,0c-2.292-0.013-2.829-1.964-3.22-3.39   c-0.06-0.217-0.119-0.432-0.182-0.637c-0.874-2.832-0.83-5.777-0.783-8.895c0.022-1.432,0.044-2.901-0.013-4.461   c-8.353,12.441-12.439,23.741-12.84,35.459c-0.352,10.355,3.864,17.797,12.533,22.12c8.165,4.073,16.891,4.55,25.94,1.412   c11.596-4.019,17.359-12.334,17.129-24.71C77.634,58.089,73.006,50.84,68.03,44.372z"/><path d="M68.814,43.769c-1.433-1.863-2.953-3.722-4.424-5.52C56.88,29.066,49.113,19.571,49.803,5.52   c0.01-0.211-0.114-0.405-0.31-0.483c-0.196-0.081-0.421-0.024-0.558,0.136c-7.094,8.235-9.582,16.46-7.827,25.884l0.177,0.943   c0.869,4.609,1.767,9.374,0.427,14.086c-0.05,0.177-0.099,0.358-0.147,0.542c-0.452,1.704-0.833,2.739-2.303,2.739   c-0.004,0-0.008,0-0.012,0c-1.439-0.008-1.818-1.011-2.271-2.663c-0.062-0.227-0.124-0.452-0.191-0.667   c-0.828-2.682-0.786-5.419-0.739-8.588c0.029-1.89,0.058-3.845-0.092-6.001c-0.015-0.21-0.16-0.386-0.363-0.442   c-0.2-0.052-0.418,0.023-0.537,0.196c-9.021,13.084-13.418,24.904-13.838,37.199c-0.367,10.776,4.034,18.527,13.08,23.037   C39.057,93.811,43.999,95,49.081,95c3.899,0,7.88-0.7,11.922-2.102c12.046-4.176,18.033-12.811,17.794-25.664   C78.618,57.784,73.893,50.371,68.814,43.769z M60.679,91.964c-9.048,3.138-17.775,2.661-25.94-1.412   c-8.669-4.323-12.885-11.765-12.533-22.12c0.401-11.718,4.487-23.019,12.84-35.459c0.057,1.56,0.035,3.029,0.013,4.461   c-0.047,3.117-0.091,6.063,0.783,8.895c0.063,0.206,0.122,0.42,0.182,0.637c0.392,1.425,0.928,3.377,3.22,3.39   c0.006,0,0.011,0,0.017,0c2.336,0,2.848-1.926,3.259-3.474l0.143-0.525c1.404-4.937,0.483-9.819-0.407-14.54l-0.177-0.941   c-1.619-8.691,0.509-16.34,6.693-23.967c-0.137,13.64,7.479,22.952,14.852,31.967c1.466,1.791,2.981,3.645,4.405,5.496   c4.976,6.469,9.604,13.718,9.777,22.882C78.037,79.63,72.274,87.944,60.679,91.964z"/></g></svg>
